<svg width="21" height="12" viewBox="0 0 21 12" fill="none" xmlns="http://www.w3.org/2000/svg">
<path d="M-1.55418e-06 1.32156C-1.6068e-06 0.963644 0.129885 0.653891 0.389654 0.392348C0.649424 0.130785 0.957031 3.90307e-06 1.3125 3.88459e-06L19.6875 2.92926e-06C20.043 2.91078e-06 20.3506 0.130784 20.6103 0.392347C20.8701 0.65389 21 0.963643 21 1.32156C21 1.67948 20.8701 1.98924 20.6103 2.25078L11.4228 11.5017C11.1631 11.7633 10.8555 11.894 10.5 11.894C10.1445 11.894 9.83691 11.7633 9.57716 11.5017L0.389655 2.25078C0.129885 1.98924 -1.50157e-06 1.67949 -1.55418e-06 1.32156Z" fill="#C42F25"/>
</svg>
