<svg width="15" height="8" viewBox="0 0 15 8" fill="none" xmlns="http://www.w3.org/2000/svg">
<g clip-path="url(#clip0_3_84)">
<path d="M14.9614 6.66667C14.9614 6.89236 14.8728 7.08768 14.6956 7.2526C14.5184 7.41753 14.3086 7.5 14.0661 7.5H1.53167C1.28919 7.5 1.07935 7.41753 0.90215 7.2526C0.724952 7.08768 0.636353 6.89236 0.636353 6.66667C0.636353 6.44097 0.724952 6.24565 0.90215 6.08073L7.16937 0.247396C7.34656 0.0824653 7.55641 0 7.79889 0C8.04137 0 8.25121 0.0824653 8.4284 0.247396L14.6956 6.08073C14.8728 6.24565 14.9614 6.44097 14.9614 6.66667Z" fill="#2C2C2C"/>
</g>
<defs>
<clipPath id="clip0_3_84">
<rect width="14.3251" height="8" fill="white" transform="translate(0.636353)"/>
</clipPath>
</defs>
</svg>
